<?xml version="1.0" encoding="utf-8"?>
<!-- Generator: Adobe Illustrator 16.0.0, SVG Export Plug-In . SVG Version: 6.00 Build 0)  -->
<!DOCTYPE svg PUBLIC "-//W3C//DTD SVG 1.1//EN" "http://www.w3.org/Graphics/SVG/1.1/DTD/svg11.dtd">
<svg version="1.1" id="Layer_4" xmlns="http://www.w3.org/2000/svg" xmlns:xlink="http://www.w3.org/1999/xlink" x="0px" y="0px"
	 width="3em" height="2.5em" viewBox="0 0 50.112 47.546" enable-background="new 0 0 50.112 47.546" xml:space="preserve">
<g>
	<path fill="#36559D" d="M49.675,22.558c-0.186-0.392-0.448-0.749-0.75-1.082c-0.106-0.118-0.2-0.245-0.322-0.354l-0.618-0.557
		l-8.07-7.238l-0.979-0.877l-0.979-0.877L25.056,0L1.51,21.123c-1.869,1.675-2.025,4.55-0.347,6.421
		c0.896,1.001,2.135,1.493,3.382,1.493c0.001,0,0.002,0,0.002,0v8.819v3.227v3.396c0,1.689,1.372,3.067,3.068,3.067h7.491h3.443
		h8.367h1.612h2.873h0.165h2.271h3.806h2.869h1.985c0.482,0,0.933-0.123,1.34-0.321c0.425-0.208,0.79-0.509,1.077-0.881
		c0.401-0.519,0.65-1.161,0.65-1.865v-3.396v-3.227v-4.15v-4.652c1.248-0.001,2.486-0.51,3.384-1.51
		C50.21,26.137,50.434,24.165,49.675,22.558z"/>
</g>
</svg>
