<?xml version="1.0" encoding="utf-8"?>
<!-- Generator: Adobe Illustrator 16.0.0, SVG Export Plug-In . SVG Version: 6.00 Build 0)  -->
<!DOCTYPE svg PUBLIC "-//W3C//DTD SVG 1.1//EN" "http://www.w3.org/Graphics/SVG/1.1/DTD/svg11.dtd">
<svg version="1.1" xmlns="http://www.w3.org/2000/svg" xmlns:xlink="http://www.w3.org/1999/xlink" x="0px" y="0px"
	 width="50.111px" height="47.546px" viewBox="0 0 50.111 47.546" enable-background="new 0 0 50.111 47.546" xml:space="preserve">
<g id="Layer_4">
</g>
<g id="Layer_2">
	<g>
		<path fill="#36559D" d="M46.849,22.627c-0.165-0.29-0.396-0.552-0.664-0.798c-0.095-0.087-0.176-0.181-0.283-0.261l-0.547-0.411
			l-7.139-5.338l-0.865-0.647l-0.867-0.647L25.072,5.99L4.245,21.568c-1.654,1.235-1.792,3.356-0.308,4.736
			c0.792,0.738,1.889,1.102,2.992,1.102c0,0,0.001,0,0.001,0v6.504v2.381v2.504c0,1.246,1.214,2.263,2.714,2.263h6.625h3.046h7.402
			h1.426h2.541h0.146h2.009h3.367h2.537h1.757c0.426,0,0.823-0.091,1.186-0.237c0.374-0.153,0.698-0.375,0.953-0.65
			c0.353-0.382,0.573-0.855,0.573-1.375v-2.504V33.91v-3.061v-3.431c1.104-0.002,2.199-0.376,2.994-1.114
			C47.322,25.267,47.521,23.813,46.849,22.627z"/>
	</g>
</g>
</svg>
