<?xml version="1.0" encoding="utf-8"?>
<!-- Generator: Adobe Illustrator 16.0.0, SVG Export Plug-In . SVG Version: 6.00 Build 0)  -->
<!DOCTYPE svg PUBLIC "-//W3C//DTD SVG 1.1//EN" "http://www.w3.org/Graphics/SVG/1.1/DTD/svg11.dtd">
<svg version="1.1" id="Layer_1" xmlns="http://www.w3.org/2000/svg" xmlns:xlink="http://www.w3.org/1999/xlink" x="0px" y="0px"
	 width="640px" height="480px" viewBox="0 0 640 480" enable-background="new 0 0 640 480" xml:space="preserve">
<g>
	<defs>
		<rect id="SVGID_1_" x="0.013" y="0" width="640" height="480"/>
	</defs>
	<clipPath id="SVGID_2_">
		<use xlink:href="#SVGID_1_"  overflow="visible"/>
	</clipPath>
	<g clip-path="url(#SVGID_2_)">
		<path fill="#636363" d="M-161.278,0h962.579v481.29h-962.579V0z"/>
		<path fill="#FFFFFF" d="M-161.278,0v53.81l854.963,427.482h107.616v-53.808L-53.661,0H-161.278z M801.302,0v53.809L-53.661,481.29
			h-107.616v-53.809L693.685,0H801.302z"/>
		<path fill="#FFFFFF" d="M239.797,0v481.29h160.43V0H239.797z M-161.278,160.429v160.433h962.579V160.429H-161.278z"/>
		<path fill="#BABABA" d="M-161.278,192.515v96.258h962.579v-96.258H-161.278z M271.884,0v481.29h96.256V0H271.884z
			 M-161.278,481.29l320.859-160.43h71.746L-89.533,481.29H-161.278z M-161.278,0l320.859,160.43H87.838L-161.278,35.874V0z
			 M408.697,160.429L729.556,0h71.747l-320.859,160.43H408.697L408.697,160.429z M801.302,481.29L480.442,320.86h71.744
			l249.115,124.56V481.29z"/>
	</g>
</g>
<g id="Layer_2">
</g>
</svg>
