<?xml version="1.0" encoding="utf-8"?>
<!-- Generator: Adobe Illustrator 16.0.0, SVG Export Plug-In . SVG Version: 6.00 Build 0)  -->
<!DOCTYPE svg PUBLIC "-//W3C//DTD SVG 1.1//EN" "http://www.w3.org/Graphics/SVG/1.1/DTD/svg11.dtd">
<svg version="1.1" id="Layer_1" xmlns="http://www.w3.org/2000/svg" xmlns:xlink="http://www.w3.org/1999/xlink" x="0px" y="0px"
	 width="640px" height="480px" viewBox="0 0 640 480" enable-background="new 0 0 640 480" xml:space="preserve">
<g>
	<defs>
		<rect id="SVGID_1_" x="0.01" y="0" width="640.24" height="481.5"/>
	</defs>
	<clipPath id="SVGID_2_">
		<use xlink:href="#SVGID_1_"  overflow="visible"/>
	</clipPath>
	<g clip-path="url(#SVGID_2_)">
		<path fill="#000066" d="M-160.276,0h960.391v480.041h-960.391V0z"/>
		<path fill="#FFFFFF" d="M-160.276,0v53.671l853.019,426.372h107.372v-53.669L-52.904,0H-160.276z M800.115,0v53.67
			L-52.904,480.041h-107.372v-53.67L692.743,0H800.115z"/>
		<path fill="#FFFFFF" d="M239.887,0v480.041h160.064V0H239.887z M-160.276,160.013v160.015h960.391V160.013H-160.276z"/>
		<path fill="#CC0000" d="M-160.276,192.015v96.008h960.391v-96.008H-160.276z M271.901,0v480.041h96.037V0H271.901z
			 M-160.276,480.041l320.131-160.014h71.582L-88.694,480.04L-160.276,480.041L-160.276,480.041z M-160.276,0l320.131,160.014
			H88.274L-160.276,35.78V0z M408.403,160.013L728.534,0h71.581l-320.13,160.014H408.403L408.403,160.013z M800.115,480.041
			l-320.13-160.014h71.582l248.548,124.234V480.041z"/>
	</g>
</g>
</svg>
