<?xml version="1.0" encoding="utf-8"?>
<!-- Generator: Adobe Illustrator 16.0.0, SVG Export Plug-In . SVG Version: 6.00 Build 0)  -->
<!DOCTYPE svg PUBLIC "-//W3C//DTD SVG 1.1//EN" "http://www.w3.org/Graphics/SVG/1.1/DTD/svg11.dtd">
<svg version="1.1" id="Layer_5" xmlns="http://www.w3.org/2000/svg" xmlns:xlink="http://www.w3.org/1999/xlink" x="0px" y="0px"
	 width="50.066px" height="39.57px" viewBox="0 0 50.066 39.57" enable-background="new 0 0 50.066 39.57" xml:space="preserve">
<g>
	<g>
		<polygon fill="#878788" points="21.556,26.091 18.697,27.44 15.966,34.094 22.527,39.571 24.56,30.454 23.448,28.84 		"/>
		<polygon fill="#878788" points="28.771,26.091 26.878,28.84 25.767,30.454 27.799,39.571 34.361,34.094 31.63,27.44 		"/>
	</g>
	<path fill="#36559D" d="M38.878,13.866l-3.865-2.68l2.021-4.246l-4.685-0.389l-0.375-4.686l-4.251,2.006L25.055,0L25.007,0.07
		l-2.63,3.795l-4.245-2.021l-0.39,4.685l-4.687,0.374l2.006,4.254l-3.872,2.666l3.864,2.678l-2.019,4.246l4.685,0.389l0.374,4.688
		l1.749-0.826l2.504-1.182l2.66,3.863v0.002l0.006,0.008l0.52-0.75l2.159-3.112l4.246,2.021l0.388-4.687l4.687-0.373l-2.006-4.253
		L38.878,13.866z M25.82,20.807c-0.272,0.031-0.543,0.042-0.812,0.041v-0.001c-3.511-0.009-6.534-2.646-6.938-6.217
		c-0.435-3.845,2.332-7.314,6.179-7.749c0.255-0.029,0.507-0.042,0.758-0.043c3.532-0.019,6.584,2.63,6.99,6.22
		C32.431,16.904,29.664,20.373,25.82,20.807z"/>
</g>
</svg>
