<?xml version="1.0" encoding="utf-8"?>
<!-- Generator: Adobe Illustrator 16.0.0, SVG Export Plug-In . SVG Version: 6.00 Build 0)  -->
<!DOCTYPE svg PUBLIC "-//W3C//DTD SVG 1.1//EN" "http://www.w3.org/Graphics/SVG/1.1/DTD/svg11.dtd">
<svg version="1.1" id="Layer_4" xmlns="http://www.w3.org/2000/svg" xmlns:xlink="http://www.w3.org/1999/xlink" x="0px" y="0px"
	 width="auto" height="2em" viewBox="0 0 49.944 34.809" enable-background="new 0 0 49.944 34.809" xml:space="preserve">
<g>
	<path fill="#36559D" d="M49.944,21.969c0-3.718-2.717-6.979-6.801-8.822c0.349,1.082,0.541,2.208,0.541,3.366
		c0,6.963-6.683,12.805-15.696,14.41c2.175,0.931,4.715,1.467,7.432,1.467c2.118,0,4.131-0.328,5.947-0.914l7.407,3.333
		l-2.651-5.797C48.495,27.157,49.944,24.685,49.944,21.969z"/>
	<path fill="#36559D" d="M20.697,0C9.267,0,0,6.648,0,14.849c0,3.87,2.064,7.393,5.445,10.036l-3.779,8.261l10.557-4.749
		c2.587,0.834,5.455,1.303,8.475,1.303c11.432,0,20.699-6.649,20.699-14.851C41.396,6.648,32.129,0,20.697,0z M12.312,16.62
		c-1.08,0-1.956-0.875-1.956-1.954c0-1.081,0.875-1.955,1.956-1.955s1.956,0.874,1.956,1.955
		C14.268,15.745,13.392,16.62,12.312,16.62z M20.697,16.62c-1.08,0-1.956-0.875-1.956-1.954c0-1.081,0.875-1.955,1.956-1.955
		c1.081,0,1.955,0.874,1.955,1.955C22.652,15.745,21.778,16.62,20.697,16.62z M29.083,16.62c-1.079,0-1.955-0.875-1.955-1.954
		c0-1.081,0.876-1.955,1.955-1.955c1.08,0,1.956,0.874,1.956,1.955C31.04,15.745,30.164,16.62,29.083,16.62z"/>
</g>
</svg>
