<?xml version="1.0" encoding="utf-8"?>
<!-- Generator: Adobe Illustrator 16.0.0, SVG Export Plug-In . SVG Version: 6.00 Build 0)  -->
<!DOCTYPE svg PUBLIC "-//W3C//DTD SVG 1.1//EN" "http://www.w3.org/Graphics/SVG/1.1/DTD/svg11.dtd">
<svg version="1.1" id="Layer_4" xmlns="http://www.w3.org/2000/svg" xmlns:xlink="http://www.w3.org/1999/xlink" x="0px" y="0px"
	 width="100%" height="auto" viewBox="0 0 50.111 47.546" enable-background="new 0 0 50.111 47.546" xml:space="preserve">
<g>
	<path fill="#36559D" d="M50.112,27.951c0-3.722-2.721-6.988-6.811-8.834c0.352,1.083,0.542,2.212,0.542,3.372
		c0,6.972-6.691,12.822-15.718,14.429c2.18,0.932,4.722,1.47,7.442,1.47c2.122,0,4.138-0.329,5.956-0.916l7.416,3.337l-2.654-5.805
		C48.66,33.147,50.112,30.67,50.112,27.951z"/>
	<path fill="#36559D" d="M20.824,5.952c-11.445,0-20.725,6.658-20.725,14.87c0,3.874,2.066,7.402,5.452,10.049l-3.784,8.273
		l10.571-4.757c2.591,0.836,5.463,1.307,8.488,1.307c11.448,0,20.726-6.66,20.726-14.872C41.551,12.609,32.273,5.952,20.824,5.952z
		 M12.428,22.596c-1.082,0-1.959-0.876-1.959-1.958s0.876-1.958,1.959-1.958s1.958,0.876,1.958,1.958S13.51,22.596,12.428,22.596z
		 M20.824,22.596c-1.08,0-1.958-0.876-1.958-1.958s0.876-1.958,1.958-1.958c1.083,0,1.958,0.876,1.958,1.958
		S21.906,22.596,20.824,22.596z M29.223,22.596c-1.081,0-1.958-0.876-1.958-1.958s0.877-1.958,1.958-1.958
		c1.082,0,1.959,0.876,1.959,1.958C31.183,21.719,30.306,22.596,29.223,22.596z"/>
</g>
</svg>
