<?xml version="1.0" encoding="utf-8"?>
<!-- Generator: Adobe Illustrator 16.0.0, SVG Export Plug-In . SVG Version: 6.00 Build 0)  -->
<!DOCTYPE svg PUBLIC "-//W3C//DTD SVG 1.1//EN" "http://www.w3.org/Graphics/SVG/1.1/DTD/svg11.dtd">
<svg version="1.1" id="Layer_1" xmlns="http://www.w3.org/2000/svg" xmlns:xlink="http://www.w3.org/1999/xlink" x="0px" y="0px"
	 width="123.227px" height="95.445px" viewBox="0 0 123.227 95.445" enable-background="new 0 0 123.227 95.445"
	 xml:space="preserve">
<polygon fill="#888788" points="28.686,16.96 35.205,28.222 58.114,28.222 41.979,60.997 38.555,67.952 45.315,79.661 
	52.836,64.383 70.638,28.222 106.613,28.222 112.732,16.96 "/>
<path fill="#214B9A" d="M0,0L25.69,44.493h20.154c1.848-3.755,3.694-7.51,5.545-11.264H32.136L19.452,11.264h97.213L123.227,0H0z"/>
<polygon fill="#214B9A" points="72.129,33.865 72.129,33.866 66.584,45.13 84.265,45.13 61.296,84.912 53.54,71.475 47.58,83.583 
	54.428,95.445 68.165,95.445 103.719,33.865 "/>
</svg>
