<?xml version="1.0" encoding="utf-8"?>
<!-- Generator: Adobe Illustrator 16.0.0, SVG Export Plug-In . SVG Version: 6.00 Build 0)  -->
<!DOCTYPE svg PUBLIC "-//W3C//DTD SVG 1.1//EN" "http://www.w3.org/Graphics/SVG/1.1/DTD/svg11.dtd">
<svg version="1.1" id="Layer_1" xmlns="http://www.w3.org/2000/svg" xmlns:xlink="http://www.w3.org/1999/xlink" x="0px" y="0px"
	 width="355.563px" height="177.891px" viewBox="0 0 355.563 177.891" enable-background="new 0 0 355.563 177.891"
	 xml:space="preserve">
<g>
	<g>
		<polygon fill="#888788" points="227.856,16.323 143.81,16.323 150.329,27.586 173.238,27.586 157.103,60.36 153.679,67.315 
			160.439,79.024 167.96,63.746 185.762,27.586 221.737,27.586 		"/>
		<path fill="#214B9A" d="M231.48,11.264h-97.213l12.683,21.965h19.253c-1.85,3.754-3.697,7.509-5.545,11.264h-20.154L114.814,0
			H238.04L231.48,11.264L231.48,11.264z M187.253,33.229l-5.545,11.264h17.681L176.42,84.275l-7.756-13.437l-5.96,12.107
			l13.717,23.76l42.422-73.478L187.253,33.229L187.253,33.229z"/>
	</g>
	<path fill="#888788" d="M329.542,162.213v7.976v7.016h-8.867v-36.896h8.867v10.848v4.46V162.213L329.542,162.213z M355.563,177.204
		h-9.131v-14.99H333.05v-6.598h13.383v-15.308h9.131L355.563,177.204L355.563,177.204z"/>
	<path fill="#888788" d="M316.294,177.204h-16.311c-1.653,0-3.291-0.229-4.908-0.686c-3.133-0.95-5.612-3.123-7.442-6.537
		c-1.654-3.087-2.481-6.694-2.481-10.804c0-3.968,0.739-7.485,2.219-10.538c1.618-3.379,3.923-5.678,6.914-6.905
		c2.319-0.952,4.697-1.426,7.126-1.426h15.287v7.072h-15.868c-2.497,0-4.311,1.356-5.438,4.064
		c-0.878,2.111-1.318,4.874-1.318,8.287c0,2.886,0.563,5.331,1.688,7.337c1.302,2.356,3.131,3.536,5.488,3.536h15.044V177.204z"/>
	<polygon fill="#888788" points="246.42,146.589 232.644,146.589 232.644,177.309 224.093,177.309 224.093,146.589 210.527,146.589 
		215.333,140.308 246.42,140.308 	"/>
	<polygon fill="#214B9A" points="210.986,140.308 194.729,161.659 194.729,177.309 186.02,177.309 186.02,161.659 169.974,140.308 
		180.688,140.308 190.295,153.541 200.06,140.308 	"/>
	<path fill="#214B9A" d="M170.606,158.704c0,7.188-1.987,12.334-5.964,15.431c-3.238,2.508-7.953,3.757-14.146,3.757
		c-6.861,0-11.93-1.442-15.202-4.337c-3.589-3.168-5.384-8.262-5.384-15.272c0-5.744,1.602-10.222,4.804-13.424
		c3.484-3.492,8.69-5.234,15.624-5.234c7.636,0,13.02,1.671,16.15,5.023C169.234,147.601,170.606,152.291,170.606,158.704
		L170.606,158.704z M161.211,158.493c0-3.634-0.862-6.527-2.586-8.675c-1.937-2.401-4.804-3.599-8.604-3.599
		c-3.729,0-6.544,1.284-8.444,3.862c-1.583,2.146-2.375,4.952-2.375,8.41c0,3.984,0.633,6.932,1.898,8.832
		c1.76,2.648,5.016,3.968,9.766,3.968c4.012,0,6.826-1.284,8.444-3.861C160.578,165.424,161.211,162.442,161.211,158.493z"/>
	<path fill="#214B9A" d="M103.442,177.204h-6.626c-3.902,0-7.041-0.438-9.396-1.319c-2.99-1.119-5.137-3.053-6.439-5.797
		c-0.493-1.056-0.836-2.067-1.028-3.025c-0.193-0.969-0.291-2.085-0.291-3.353v-23.4h9.021v22.595c0,1.055,0.124,1.979,0.37,2.771
		c0.246,0.791,0.695,1.567,1.319,2.35c0.888,1.109,1.9,1.855,3.062,2.208c1.161,0.352,2.639,0.527,4.435,0.527h5.575
		L103.442,177.204L103.442,177.204z"/>
	<polygon fill="#214B9A" points="78.125,177.204 68.888,177.204 57.909,149.387 47.194,177.204 38.062,177.204 53.211,140.308 
		62.717,140.308 	"/>
	<path fill="#214B9A" d="M37.529,165.723c0,3.229-1.072,5.946-3.219,8.164c-2.146,2.208-4.874,3.315-8.182,3.315H0v-6.598h21.536
		c1.442,0,2.656-0.334,3.642-1.013c1.126-0.773,1.689-1.839,1.689-3.185c0-3.149-2.221-4.725-6.65-4.725H16.07
		c-3.128,0-5.88-0.967-8.232-2.895c-2.358-1.931-3.537-4.39-3.537-7.372c0-3.299,1.153-5.979,3.458-8.032
		c2.3-2.049,5.34-3.078,9.104-3.078h31.694l-2.883,6.335H19.818c-0.98,0-1.982,0.412-2.981,1.23
		c-1.002,0.822-1.504,1.794-1.504,2.912c0,1.258,0.482,2.317,1.452,3.175c0.964,0.854,2.138,1.284,3.51,1.284h5.254
		c3.729,0,6.664,0.959,8.788,2.868C36.465,160.027,37.529,162.565,37.529,165.723z"/>
	<rect x="250.491" y="169.576" fill="#888788" width="32.671" height="7.733"/>
	<rect x="250.491" y="154.942" fill="#888788" width="23.779" height="7.733"/>
	<rect x="250.491" y="140.308" fill="#888788" width="32.671" height="7.733"/>
	<path fill="#214B9A" d="M129.24,177.204h-6.628c-3.901,0-7.041-0.438-9.395-1.319c-2.99-1.119-5.138-3.053-6.439-5.797
		c-0.492-1.056-0.836-2.067-1.028-3.025c-0.193-0.969-0.291-2.085-0.291-3.353v-23.4h9.021v22.595c0,1.055,0.124,1.979,0.37,2.771
		c0.246,0.791,0.695,1.567,1.32,2.35c0.888,1.109,1.899,1.855,3.061,2.208c1.161,0.352,2.64,0.527,4.435,0.527h5.576L129.24,177.204
		L129.24,177.204z"/>
	<polygon fill="#214B9A" points="56.795,161.205 67.586,161.205 67.586,167.802 54.392,167.802 	"/>
</g>
</svg>
