<?xml version="1.0" encoding="utf-8"?>
<!-- Generator: Adobe Illustrator 16.0.0, SVG Export Plug-In . SVG Version: 6.00 Build 0)  -->
<!DOCTYPE svg PUBLIC "-//W3C//DTD SVG 1.1//EN" "http://www.w3.org/Graphics/SVG/1.1/DTD/svg11.dtd">
<svg version="1.1" id="Layer_5" xmlns="http://www.w3.org/2000/svg" xmlns:xlink="http://www.w3.org/1999/xlink" x="0px" y="0px"
	 width="50.066px" height="39.57px" viewBox="0 0 50.066 39.57" enable-background="new 0 0 50.066 39.57" xml:space="preserve">
<g>
	<path fill="#36559D" d="M26.705,27.823l3.854,0.545c0.373-1.81,0.39-3.705,0.009-5.583l-3.855,0.532l-0.642-1.551l-0.64-1.553
		l3.112-2.34c-1.053-1.601-2.401-2.934-3.942-3.953l-2.35,3.104l-1.55-0.645l-1.55-0.646l0.545-3.854
		c-1.809-0.373-3.705-0.39-5.583-0.008l0.534,3.856l-1.552,0.64l-1.552,0.641l-2.34-3.111c-1.601,1.052-2.935,2.401-3.953,3.942
		l3.104,2.349L7.709,21.74l-0.646,1.548L3.21,22.743c-0.374,1.81-0.392,3.706-0.009,5.584l3.855-0.533l0.64,1.551l0.641,1.552
		l-3.112,2.34c1.053,1.603,2.402,2.935,3.943,3.955l2.349-3.104l1.55,0.645l1.55,0.645l-0.546,3.854
		c1.811,0.374,3.706,0.392,5.584,0.009l-0.533-3.855l1.55-0.641l1.552-0.641l2.34,3.111c1.6-1.052,2.936-2.401,3.953-3.942
		l-3.103-2.349l0.646-1.55L26.705,27.823z M16.885,31.218c-3.127,0-5.661-2.534-5.661-5.661s2.534-5.662,5.661-5.662
		c3.126,0,5.661,2.535,5.661,5.662S20.011,31.218,16.885,31.218z"/>
	<path fill="#878788" d="M44.675,18.788l2.43-0.125c0.015-1.154-0.201-2.319-0.66-3.426l-2.302,0.785l-0.577-0.875l-0.577-0.876
		l1.631-1.806c-0.835-0.857-1.823-1.514-2.892-1.956l-1.069,2.184l-1.029-0.21l-1.027-0.211l-0.125-2.43
		c-1.153-0.014-2.317,0.202-3.427,0.66l0.789,2.302l-0.877,0.578l-0.874,0.578l-1.809-1.63c-0.854,0.836-1.513,1.821-1.954,2.889
		l2.184,1.072l-0.211,1.026l-0.21,1.027l-2.43,0.125c-0.014,1.155,0.2,2.32,0.659,3.426l2.304-0.787l0.575,0.876l0.577,0.876
		l-1.63,1.807c0.837,0.855,1.824,1.513,2.893,1.956l1.068-2.187l1.029,0.211l1.025,0.211l0.127,2.431
		c1.153,0.013,2.319-0.201,3.427-0.659l-0.79-2.303l0.878-0.576l0.876-0.578l1.806,1.63c0.856-0.836,1.514-1.822,1.955-2.891
		l-2.184-1.071l0.211-1.027L44.675,18.788z M39.056,22.04c-1.918,0.372-3.773-0.881-4.147-2.798c-0.371-1.917,0.88-3.775,2.8-4.147
		c1.917-0.372,3.774,0.88,4.146,2.799C42.226,19.81,40.975,21.667,39.056,22.04z"/>
	<path fill="#878788" d="M30.128,8.993l1.562,0.869c0.458-0.714,0.779-1.522,0.926-2.39l-1.74-0.407l-0.02-0.77l-0.017-0.771
		l1.718-0.488c-0.188-0.858-0.545-1.652-1.036-2.343l-1.518,0.941l-0.559-0.531l-0.558-0.53l0.868-1.562
		c-0.712-0.458-1.522-0.778-2.389-0.923L26.96,1.827L26.19,1.846l-0.77,0.019l-0.489-1.719c-0.859,0.188-1.652,0.544-2.342,1.037
		L23.53,2.7l-0.531,0.558l-0.531,0.557l-1.562-0.869c-0.458,0.713-0.777,1.522-0.923,2.39l1.739,0.408l0.019,0.77l0.018,0.77
		l-1.717,0.488c0.186,0.859,0.545,1.652,1.036,2.344l1.518-0.942l0.557,0.532l0.558,0.531l-0.869,1.561
		c0.713,0.459,1.521,0.778,2.389,0.924l0.408-1.74l0.769-0.017l0.772-0.02l0.488,1.719c0.856-0.188,1.65-0.544,2.341-1.036
		l-0.939-1.519l0.53-0.557L30.128,8.993z M25.365,8.828c-1.339-0.517-2.007-2.021-1.491-3.358c0.516-1.337,2.019-2.006,3.356-1.491
		c1.34,0.517,2.006,2.02,1.49,3.357S26.705,9.343,25.365,8.828z"/>
</g>
</svg>
