<?xml version="1.0" encoding="utf-8"?>
<!-- Generator: Adobe Illustrator 16.0.0, SVG Export Plug-In . SVG Version: 6.00 Build 0)  -->
<!DOCTYPE svg PUBLIC "-//W3C//DTD SVG 1.1//EN" "http://www.w3.org/Graphics/SVG/1.1/DTD/svg11.dtd">
<svg version="1.1" id="Layer_5" xmlns="http://www.w3.org/2000/svg" xmlns:xlink="http://www.w3.org/1999/xlink" x="0px" y="0px"
	 width="50.066px" height="39.57px" viewBox="0 0 50.066 39.57" enable-background="new 0 0 50.066 39.57" xml:space="preserve">
<g>
	<g>
		<g>
			<g>
				<path fill="#878788" d="M7.562,26.109c-2.316,0-4.202,1.886-4.202,4.2c0,0.079,0.009,0.155,0.013,0.232
					c0.122,2.209,1.951,3.971,4.189,3.971c2.271,0,4.123-1.813,4.195-4.067c0.001-0.044,0.006-0.089,0.006-0.136
					C11.763,27.994,9.879,26.109,7.562,26.109z M7.562,31.609c-0.647,0-1.183-0.479-1.277-1.101
					c-0.012-0.065-0.021-0.131-0.021-0.199c0-0.715,0.582-1.298,1.298-1.298s1.298,0.583,1.298,1.298
					c0,0.061-0.01,0.114-0.018,0.169C8.759,31.115,8.22,31.609,7.562,31.609z"/>
			</g>
			<g>
				<path fill="#878788" d="M31.389,30.221c-0.046-2.275-1.91-4.111-4.195-4.111c-2.316,0-4.201,1.886-4.201,4.2
					c0,0.004,0,0.006,0,0.008c0.004,2.313,1.886,4.195,4.201,4.195c2.317,0,4.201-1.885,4.201-4.203
					C31.395,30.281,31.391,30.251,31.389,30.221z M27.193,31.609c-0.716,0-1.299-0.583-1.299-1.3c0-0.008,0.003-0.017,0.003-0.023
					c0.015-0.704,0.589-1.273,1.296-1.273c0.696,0,1.264,0.554,1.292,1.242c0.001,0.02,0.006,0.038,0.006,0.056
					C28.49,31.026,27.91,31.609,27.193,31.609z"/>
			</g>
			<g>
				<path fill="#878788" d="M42.31,30.096c-0.111-2.217-1.943-3.986-4.189-3.986c-2.276,0-4.133,1.821-4.194,4.083
					c-0.002,0.04-0.007,0.078-0.007,0.117c0,2.318,1.885,4.203,4.201,4.203s4.2-1.885,4.2-4.203
					C42.32,30.238,42.313,30.168,42.31,30.096z M38.119,31.609c-0.718,0-1.299-0.583-1.299-1.3c0-0.051,0.01-0.1,0.016-0.15
					c0.077-0.645,0.619-1.146,1.283-1.146c0.652,0,1.19,0.488,1.279,1.117c0.01,0.061,0.02,0.119,0.02,0.181
					C39.418,31.026,38.835,31.609,38.119,31.609z"/>
			</g>
		</g>
	</g>
	<polygon fill="#878788" points="7.562,9.266 16.412,5.059 16.412,9.266 	"/>
	<rect x="18.339" y="5.059" fill="#36559D" width="31.754" height="16.729"/>
	<path fill="#878788" d="M44.688,23.456l-28.072-0.001V11.048H6.188L0,20.815v9.766l2.404-0.027
		c-0.003-0.081-0.012-0.161-0.012-0.243c0-2.85,2.319-5.168,5.169-5.168c2.851,0,5.169,2.318,5.169,5.168
		c0,0.043-0.005,0.084-0.006,0.126l9.299-0.106c0-0.006,0-0.013,0-0.02c0-2.85,2.318-5.168,5.169-5.168
		c2.815,0,5.109,2.266,5.164,5.068l0.6-0.007c0.058-2.802,2.35-5.063,5.163-5.063c2.774,0,5.038,2.198,5.156,4.942l1.411-0.017
		l5.38-6.632L44.688,23.456z M13.865,20.815H3.438l4.125-6.272h6.304L13.865,20.815L13.865,20.815z"/>
</g>
</svg>
